# xmcd
#
# Track frame offsets: 
#        150
#        12741
#        28747
#        47482
#        65909
#        79025
#        90121
#        105355
#        120140
#        129544
#        145697
#        157218
#        172524
#        186813
#        198334
#        217684
#        232008
#        254851
#        267808
#        279824
#
# Disc length: 3884 seconds
#
# Revision: 0
# Processed by: cddbd v1.5.2PL0 Copyright (c) Steve Scherf et al.
# Submitted via: ExactAudioCopyFreeDBPlugin 1.0
#
DISCID=070f2a14
DTITLE=Various Artist - El Saxo Maravilloso Vol.1
DYEAR=2008
DGENRE=Blues
TTITLE0=Fausto Papetti - Love Me Tender
TTITLE1=Peter Hofmann - Unforgettable
TTITLE2=Fausto Papetti - Samba Pa Ti
TTITLE3=Stan Tornier - Arthur's Theme
TTITLE4=Nestor Cavatini - Jealous Guy
TTITLE5=Fausto Papetti - The Shadow Of Your Smile
TTITLE6=Peter Hofmann - True Love
TTITLE7=Stan Tornier - Noche Y Dia
TTITLE8=Fausto Papetti - Laura
TTITLE9=Mel Colombo - C'est Magnifique
TTITLE10=Fausto Papetti - Nacida Libre
TTITLE11=Stan Tornier - The Sounds Of Silence
TTITLE12=Peter Hofmann - Dreaming
TTITLE13=Fausto Papetti - El Sonido De La Musica
TTITLE14=Nestor Cavatini - Amapola
TTITLE15=Stan Tornier - I Just Called To Say I Love You
TTITLE16=Peter Hofmann - Jane
TTITLE17=Fausto Papetti - Killing Me Softly
TTITLE18=Nestor Cavatini - Unchained Melody
TTITLE19=Fausto Papetti - Strangers In The Night
EXTD=
EXTT0=
EXTT1=
EXTT2=
EXTT3=
EXTT4=
EXTT5=
EXTT6=
EXTT7=
EXTT8=
EXTT9=
EXTT10=
EXTT11=
EXTT12=
EXTT13=
EXTT14=
EXTT15=
EXTT16=
EXTT17=
EXTT18=
EXTT19=
PLAYORDER=
